<?xml version="1.0" encoding="UTF-8"?>
<svg width="94px" height="108px" viewBox="0 0 94 108" version="1.1" xmlns="http://www.w3.org/2000/svg" xmlns:xlink="http://www.w3.org/1999/xlink">
    <title>headshot-outline</title>
    <g id="headshot-outline" stroke="none" stroke-width="1" fill="none" fill-rule="evenodd">
        <path d="M51.5225771,2.21476302 L89.4774229,24.1812057 C92.2760033,25.8008897 94,28.7941893 94,32.0335573 L94,75.9664427 C94,79.2058107 92.2760033,82.1991103 89.4774229,83.8187943 L51.5225771,105.785237 C48.7239967,107.404921 45.2760033,107.404921 42.4774229,105.785237 L4.52257711,83.8187943 C1.72399665,82.1991103 0,79.2058107 0,75.9664427 L0,32.0335573 C0,28.7941893 1.72399665,25.8008897 4.52257711,24.1812057 L42.4774229,2.21476302 C45.2760033,0.595078995 48.7239967,0.595078995 51.5225771,2.21476302 Z M50.5207579,3.94576221 C48.4257056,2.73324656 45.8637962,2.68661134 43.7328319,3.80585656 L43.4792421,3.94576221 L5.52439635,25.9122049 C3.42181215,27.1290797 2.09706261,29.3422644 2.00511951,31.7636928 L2,32.0335573 L2,75.9664427 C2,78.4022155 3.24965725,80.6589323 5.29399996,81.9485268 L5.52439635,82.0877951 L43.4792421,104.054238 C45.5742944,105.266753 48.1362038,105.313389 50.2671681,104.194143 L50.5207579,104.054238 L88.4756037,82.0877951 C90.5781879,80.8709203 91.9029374,78.6577356 91.9948805,76.2363072 L92,75.9664427 L92,32.0335573 C92,29.5977845 90.7503428,27.3410677 88.706,26.0514732 L88.4756037,25.9122049 L50.5207579,3.94576221 Z" id="Path" fill="#FF1493" fill-rule="nonzero"></path>
    </g>
</svg>